<svg xmlns="http://www.w3.org/2000/svg" viewBox="0 0 750 500"><defs><style>.cls-1{isolation:isolate;}.cls-2{fill:#b8cfce;}.cls-12,.cls-13,.cls-3{fill:none;stroke-miterlimit:10;stroke-width:1.31px;}.cls-3{stroke:#220d59;}.cls-4,.cls-9{fill:#220d59;}.cls-5{fill:#b126ed;}.cls-14,.cls-6{fill:#45b7bf;}.cls-7{fill:#eeeff2;}.cls-8{fill:#ffa12e;}.cls-9{mix-blend-mode:soft-light;}.cls-10{font-size:274.66px;font-family:CaviarDreams-Bold, CaviarDreams Bold;font-weight:700;letter-spacing:-0.03em;}.cls-10,.cls-11{fill:#f7f1e6;}.cls-12{stroke:#f7f1e6;}.cls-13{stroke:#45b7bf;}.cls-14{font-size:19.2px;font-family:CaviarDreams-Italic, CaviarDreams Italic;font-style:italic;letter-spacing:0.1em;}.cls-15{fill:#f9fbfc;}</style></defs><g class="cls-1"><g id="BACKGROUND"><rect class="cls-2" width="750" height="500"/></g><g id="OBJECTS"><path class="cls-3" d="M141.89,311.83a18.77,18.77,0,1,0,9.35,24.84A18.77,18.77,0,0,0,141.89,311.83Z"/><path class="cls-4" d="M288.52,126.87c-.84-4.65-6.61-7.26-10.76-7.65s-9.57,1.28-12.31,4c-1.88,1.86-3.18,4.36-5.8,5.36-2.31.88-5.16.37-7.33,1.49-5.19,2.69-1.17,10.9-5.83,14.24-1.69,1.21-4.24,1.49-5.45,3.06-1.66,2.16.33,5.09-.24,7.63-.88,4-7.58,5.64-8.17,9.7-.54,3.73,4.33,6.18,6.32,9.51.92,1.54,1.25,3.33,2.41,4.74,1.56,1.88,4.29,2.71,6.89,3.27a21.74,21.74,0,0,0,6.86.63c8-.81,13.29-8.57,21.29-9.14,3.5-.26,7,.94,10.48.44,4.71-.68,8.33-4.91,7.71-9-.33-2.19-1.7-4.27-1.48-6.47.29-3,3.44-5.35,3.77-8.34.41-3.74-4.87-7.52-4.5-11.27.23-2.26,1.28-4.24,1.84-6.46,1.11-4.4-2.19-6.52-6.71-5.88"/><path class="cls-5" d="M282.94,209.83,290.43,243s-37.33,2.2-56.18-16.57c0,0-13.73-74.05,30.38-70C298.62,159.59,298.54,177.92,282.94,209.83Z"/><path class="cls-4" d="M310.69,414.79l-11.1-.66L299,431l5.05-.12-.27-1.9,6.62,2.17,26.76.27a37,37,0,0,0-14.29-7.12,18.65,18.65,0,0,1-12.13-9.46Z"/><path class="cls-4" d="M248.36,413.79l-9.11-.68-2.91,17.23,5.17-.12.85-2,7.91,2.23,25.14.27a37.88,37.88,0,0,0-14.75-7.32,18.74,18.74,0,0,1-12.24-9.56Z"/><path class="cls-6" d="M286.68,224.56s-28.79,15-52.34,1.66c0,0-9.27,21.74-1.43,51.91s18,83.2,1.6,137.93c0,0,12.43,6.43,23.54,2.57,0,0,24.81-58.41,23.39-96.3,0,0,20,34.38,11.41,94.72,0,0,12.85,4.91,24.26.7,0,0,8.57-28.06,9.28-58.23s-6.42-63.85-17.13-85.6S289.31,231.08,286.68,224.56Z"/><path class="cls-7" d="M239.28,230.2c-5.71,26.29,1.64,52.94,5.51,78.92,3.23,21.62,4.7,43.65,3,65.46a260,260,0,0,1-7.21,43.21.32.32,0,0,0,.62.17A254.41,254.41,0,0,0,249,346.47c-.39-10.3-1.36-20.57-2.64-30.79-1.68-13.43-4.47-26.68-6.43-40.06-2.19-15-3.25-30.33,0-45.24.09-.41-.53-.58-.62-.18Z"/><path class="cls-4" d="M295.42,383.51s6.24-69.55-23.09-115.78c0,0,8.53,20.45,9.57,55.64,0,0,2.12,5.25,4.37,10.64C293.76,352,295.42,383.51,295.42,383.51Z"/><path class="cls-7" d="M271.61,267.21a151.91,151.91,0,0,1,5.92,20.39,164.91,164.91,0,0,1,3.67,24,90.17,90.17,0,0,1,.12,12.19c0,.41.62.41.64,0a107.79,107.79,0,0,0-1.24-22.41A182.2,182.2,0,0,0,275.79,278c-1-3.71-2.19-7.39-3.56-11-.14-.39-.77-.22-.62.17Z"/><path class="cls-7" d="M254.24,231.44a19,19,0,0,1-15.62,8.12.33.33,0,0,0,0,.65,19.63,19.63,0,0,0,16.17-8.44c.24-.35-.32-.67-.55-.33Z"/><path class="cls-7" d="M259.11,232.28c-4.11,7.69-12.29,11.55-20.8,11.6a.32.32,0,0,0,0,.64c8.73-.05,17.14-4,21.36-11.91.19-.37-.36-.7-.56-.33Z"/><path class="cls-7" d="M232.17,234.1a6.4,6.4,0,0,0,3,1.21c.41.05.41-.59,0-.65a5.76,5.76,0,0,1-2.69-1.11c-.34-.25-.66.31-.33.55Z"/><path class="cls-7" d="M234.25,238.08a5.83,5.83,0,0,1-2.94-.93c-.35-.23-.67.33-.32.55a6.3,6.3,0,0,0,3.26,1c.42,0,.42-.62,0-.64Z"/><path class="cls-7" d="M271.64,230.35a69.12,69.12,0,0,1-.16,22.78c-.07.41.55.58.62.17a69.87,69.87,0,0,0,.16-23.13c-.06-.4-.69-.23-.62.18Z"/><path class="cls-7" d="M288.87,230.13a7.75,7.75,0,0,1-6.46-2.95c-.26-.32-.72.14-.46.46a8.4,8.4,0,0,0,6.92,3.14c.41,0,.42-.67,0-.65Z"/><path class="cls-7" d="M290.81,233.79a13.33,13.33,0,0,1-12.39-5.6c-.24-.34-.8,0-.56.32a14,14,0,0,0,12.95,5.92c.4,0,.41-.69,0-.64Z"/><path class="cls-8" d="M277.09,158.6l.12-3.34s8.05,2.61,8.85-4.55c1.39-12.47,2.49-15.77-2.21-20.13s-18.4-.26-18.73,10.27l-.88,15.27a11.27,11.27,0,0,0,5.58,2.62A16,16,0,0,0,277.09,158.6Z"/><path class="cls-4" d="M277.94,141.77c-.1.49,0,.93.22,1s.49-.32.59-.82,0-.93-.23-1S278,141.27,277.94,141.77Z"/><path class="cls-4" d="M284.32,143c-.1.5,0,.93.23,1s.48-.33.58-.82,0-.93-.22-1S284.42,142.47,284.32,143Z"/><path class="cls-4" d="M277.48,155.31a13.6,13.6,0,0,1-6.68-4.48l6.29,8Z"/><path class="cls-9" d="M268.29,143.21a4.42,4.42,0,0,1,5.42-3,4.33,4.33,0,0,1,3.09,5.33,4.42,4.42,0,0,1-5.43,3A4.33,4.33,0,0,1,268.29,143.21Z"/><path class="cls-8" d="M284.62,146.52a4.29,4.29,0,0,1,2.24-2.69c-.22,1.94-.5,4.19-.8,6.88,0,.09,0,.16-.05.25A4.27,4.27,0,0,1,284.62,146.52Z"/><path class="cls-9" d="M284.62,146.52a4.29,4.29,0,0,1,2.24-2.69c-.22,1.94-.5,4.19-.8,6.88,0,.09,0,.16-.05.25A4.27,4.27,0,0,1,284.62,146.52Z"/><polygon class="cls-9" points="283.15 139.39 282.02 139.09 280.29 145.3 283 146.03 283.15 139.39"/><path class="cls-4" d="M278.22,137.78c0,.35.44.66,1,.71s1.12-.19,1.15-.53-.44-.65-1-.7S278.25,137.44,278.22,137.78Z"/><path class="cls-4" d="M284.59,138.86c-.19.28.07.78.58,1.11s1.08.36,1.27.07-.07-.78-.58-1.11S284.78,138.57,284.59,138.86Z"/><path class="cls-8" d="M261,141.53a3.89,3.89,0,0,1,4.75-2.66,3.81,3.81,0,0,1,2.71,4.68,3.87,3.87,0,0,1-4.75,2.65A3.8,3.8,0,0,1,261,141.53Z"/><path class="cls-4" d="M264.27,141.05a2,2,0,0,1,1.71,2.24c-.06.31.43.45.48.13a2.49,2.49,0,0,0-2.19-2.87c-.32,0-.32.46,0,.5Z"/><path class="cls-4" d="M285.23,131.28c-.57,2-2.77,3.14-4.86,3.47s-4.25.09-6.32.51-4.19,1.8-4.47,3.86a3.81,3.81,0,0,1-.34,1.65,1.59,1.59,0,0,1-1.67.58,2.8,2.8,0,0,1-1.52-1,5.57,5.57,0,0,1-1-4.63,9.39,9.39,0,0,1,2.31-4.25,12.76,12.76,0,0,1,8.2-4.31,10,10,0,0,1,8.51,3.31"/><path class="cls-7" d="M281.91,161.3a18.31,18.31,0,0,1-24.17-4.18c-.26-.32-.71.13-.46.46a19,19,0,0,0,25,4.28c.35-.22,0-.78-.33-.56Z"/><path class="cls-8" d="M283.48,166.58s17.12,15,36.59,12.84,25.34-24,26-32.06l17.78-2.25a60.83,60.83,0,0,1-8.65,36C342.51,202,313,216,278.65,193.72Z"/><path class="cls-5" d="M272.3,190.27c21.68,14.82,37.43,14.49,37.43,14.49A44.29,44.29,0,0,1,314,179.39c-14.21-4.63-16.87-12.62-31.05-18.38"/><path class="cls-7" d="M307.32,177.33a39,39,0,0,0-5.13,26.26c.07.4.69.23.62-.18a38.3,38.3,0,0,1,5.07-25.75.33.33,0,0,0-.56-.33Z"/><path class="cls-9" d="M349.42,186.13c-2.58-1-6.79,1-9.42,4.44-1.92,2.52-2.17,5.52-1.31,7.13a71.2,71.2,0,0,0,8.47-6.49A20.4,20.4,0,0,0,351,187,4.6,4.6,0,0,0,349.42,186.13Z"/><path class="cls-4" d="M280.35,147.82a1.79,1.79,0,0,1,1.12,1.47c0,.21,0,.64-.44.68s-.7-.35-1.09-.47-1,.15-1.41-.21a.72.72,0,0,1-.12-.88,1.77,1.77,0,0,1,2-.57"/><path class="cls-8" d="M346.09,147.36s1.1-12.63,13.21-5.71a16.54,16.54,0,0,0,6.27.22c4.23-.69,7.84-4.39,9.3-1.3,1.17,2.49-7.36,7.13-12.54,6.7S346.09,147.36,346.09,147.36Z"/><path class="cls-8" d="M355.19,140.15c4,.69,8.47,1,13.09-2,2.44-1.55,3.55-.66,3.86-.17.42.67-.07,1.52-.6,2.1a12.65,12.65,0,0,1-9.61,4.12"/><path class="cls-8" d="M361.5,146.37a14.68,14.68,0,0,0,9.35-2.66,4.57,4.57,0,0,1,1.65-.88,1.21,1.21,0,0,1,1.43.84,2.8,2.8,0,0,1-1.06,2.51c-3,2.89-7.73,5-11.24,4.19"/><path class="cls-4" d="M363.91,146.39a15.73,15.73,0,0,0,4.27-1.4c1.54-.73,3.43-2.12,5.18-1.84.3,0,.43-.42.13-.47-1.58-.24-3,.62-4.37,1.31a18.79,18.79,0,0,1-5.34,1.94c-.3,0-.17.51.13.46Z"/><path class="cls-4" d="M361.91,144a32.52,32.52,0,0,0,6.63-2.36,34.46,34.46,0,0,1,3.57-1.85c.29-.11.16-.57-.13-.46a28.59,28.59,0,0,0-3.3,1.7,31.75,31.75,0,0,1-6.89,2.51.24.24,0,0,0,.12.46Z"/><path class="cls-8" d="M347,143.94c1.77-3.77,6.07-6.92,8.72-8.45a3.28,3.28,0,0,1,1.4-.53,1.26,1.26,0,0,1,1.27.66,1.74,1.74,0,0,1-.14,1.33,9.13,9.13,0,0,1-5.51,5.06"/><path class="cls-4" d="M351.93,147.2a3.66,3.66,0,0,1,5.5-.83c.23.2.57-.14.34-.35a4.15,4.15,0,0,0-6.26.94.24.24,0,0,0,.42.24Z"/><path class="cls-8" d="M353.87,139.07a13.53,13.53,0,0,0,7.06.24,33,33,0,0,0,5.12-2.3,3.7,3.7,0,0,1,1.6-.5,1.29,1.29,0,0,1,1.29.89,1.81,1.81,0,0,1-.8,1.58,12.14,12.14,0,0,1-10.3,2.77"/><path class="cls-4" d="M360.81,141.74c2.89-.55,5.5-2.16,8-3.57a.24.24,0,0,0-.24-.42c-2.5,1.4-5.07,3-7.92,3.52-.31.06-.18.52.13.47Z"/><path class="cls-8" d="M253.67,161.26s-22.48,3.46-37.76-8.8-8.47-33.9-4.74-41L197.37,100a60.87,60.87,0,0,0-12,35c-.47,24.42,17,52.06,57.85,51.73Z"/><path class="cls-5" d="M250.39,187.26c-26.24.86-39.36-7.87-39.36-7.87a44.32,44.32,0,0,0,10-23.69c14.47,3.71,21-1.6,36.06,1.16"/><path class="cls-7" d="M225.68,157.5A38.3,38.3,0,0,1,216.12,182c-.28.31.17.77.45.46a39,39,0,0,0,9.75-24.91c0-.42-.63-.41-.64,0Z"/><path class="cls-9" d="M187.54,142.37c2.71.54,5.2,4.48,5.57,8.8.27,3.16-1.13,5.82-2.72,6.72a70.58,70.58,0,0,1-3.66-10,20.29,20.29,0,0,1-1-5.61A4.51,4.51,0,0,1,187.54,142.37Z"/><path class="cls-8" d="M211.17,111.44s5.84-11.25-8.09-11.91a16.54,16.54,0,0,1-5.4-3.18c-3.21-2.85-4.26-7.91-7.15-6.09-2.32,1.47,2.37,10,7,12.39S211.17,111.44,211.17,111.44Z"/><path class="cls-8" d="M207.36,100.47c-3.75-1.56-7.67-3.73-10-8.69-1.22-2.61-2.64-2.46-3.16-2.21-.71.34-.76,1.32-.63,2.1a12.63,12.63,0,0,0,5.9,8.62"/><path class="cls-8" d="M198.69,102.33a14.63,14.63,0,0,1-6.45-7.26,5,5,0,0,0-.92-1.63,1.23,1.23,0,0,0-1.66-.06,2.79,2.79,0,0,0-.46,2.69c1,4,3.86,8.34,7.24,9.57"/><path class="cls-4" d="M197,100.73a20.81,20.81,0,0,1-3.68-4.87c-.71-1.19-1.43-2.52-2.77-3.07-.29-.12-.41.35-.13.46,1.54.63,2.36,2.68,3.18,4a17,17,0,0,0,3.06,3.8c.23.2.57-.13.34-.34Z"/><path class="cls-4" d="M200,99.74A31.79,31.79,0,0,1,195.58,94a32.76,32.76,0,0,0-1.89-3.25c-.19-.24-.61,0-.42.24a35.79,35.79,0,0,1,2,3.44,33.17,33.17,0,0,0,4.38,5.64c.21.23.55-.11.34-.34Z"/><path class="cls-8" d="M212.23,108.07c.53-4.13-1.4-9.1-2.82-11.81a3.28,3.28,0,0,0-.9-1.21,1.28,1.28,0,0,0-1.42-.12,1.74,1.74,0,0,0-.6,1.2,9.1,9.1,0,0,0,1.94,7.22"/><path class="cls-4" d="M206.8,108.18a4.14,4.14,0,0,0-4.79-4.13c-.3,0-.17.51.13.46a3.65,3.65,0,0,1,4.18,3.67c0,.31.47.31.48,0Z"/><path class="cls-8" d="M209.05,100.27A13.51,13.51,0,0,1,203,96.69,34.84,34.84,0,0,1,199.88,92a3.68,3.68,0,0,0-1.08-1.29,1.3,1.3,0,0,0-1.57.06,1.81,1.81,0,0,0-.17,1.77,12.17,12.17,0,0,0,7.2,7.86"/><path class="cls-4" d="M202.12,98.46c-2.12-2-3.43-4.7-4.8-7.22-.14-.28-.56,0-.41.24,1.38,2.56,2.72,5.31,4.86,7.33.23.21.57-.13.35-.35Z"/><text class="cls-10" transform="translate(170.51 386.94)">404</text><path class="cls-8" d="M480.73,168.69c-.74,17.85-9.49,30.27,6,38.21,8.05,4.13,22.05-7,28.26-21.38,2.82-6.54,24-6,9.24,20.59-13.09,23.51-44.41,26-52.38,23.06C461.71,225.48,481.64,146.37,480.73,168.69Z"/><path class="cls-9" d="M469.28,226.78c1.9-2.05,6.67-2.09,10.65-.08,2.92,1.47,4.6,3.62,4.55,5.48a40.57,40.57,0,0,1-10.81-1.73,20.82,20.82,0,0,1-5.1-2.37A2.84,2.84,0,0,1,469.28,226.78Z"/><path class="cls-8" d="M529.93,170.77s-3.18-6.92,6.2-8.69c0,0-1.22-2.55-5.14-3.18-3.15-.5-3.42-4,.69-3.81s9.29,3.58,10.2,8.42-.94,10.83-3.91,16.71S529.93,170.77,529.93,170.77Z"/><path class="cls-4" d="M531.43,165a4.67,4.67,0,0,1,2.82,2.54,1.43,1.43,0,0,1-1,2,2.73,2.73,0,0,1-2.1-.69c-.25-.18-.49.24-.24.42,1.18.85,3.55,1.33,4-.62s-1.77-3.48-3.28-4.12c-.29-.12-.41.35-.13.47Z"/><path class="cls-4" d="M532.68,165.38a5.84,5.84,0,0,1,6.57-3.21c.31.07.44-.4.13-.46a6.32,6.32,0,0,0-7.12,3.43c-.14.28.28.52.42.24Z"/><path class="cls-4" d="M534.45,167a6.49,6.49,0,0,1,5.45-2c.3,0,.3-.45,0-.48a6.94,6.94,0,0,0-5.79,2.17c-.22.22.12.57.34.34Z"/><path class="cls-4" d="M533.71,169.55a1.26,1.26,0,0,0,1.19,1.93,2.13,2.13,0,0,0,1.26-.86,4.67,4.67,0,0,1,2.49-1.57.24.24,0,0,0-.13-.47,5,5,0,0,0-1.85.86,6,6,0,0,0-.77.74,2.56,2.56,0,0,1-.51.53c-.46.31-2,.44-1.26-.91.14-.28-.27-.52-.42-.25Z"/><path class="cls-8" d="M523.38,130.13s8.82,33.31-12.44,21.05l.27,20.8-15.85-16.53,6.47-20.08S500.28,115.86,523.38,130.13Z"/><path class="cls-4" d="M520.56,140.81c-.11.52,0,1,.21,1s.51-.33.62-.84,0-1-.21-1S520.68,140.3,520.56,140.81Z"/><path class="cls-4" d="M520.73,147.58a1.59,1.59,0,0,1,1.62,1c.14.31.58.05.45-.26a2.09,2.09,0,0,0-2.07-1.22c-.33,0-.34.55,0,.52Z"/><path class="cls-4" d="M521.09,137.31c.17.32.76.33,1.31,0s.86-.8.68-1.11-.75-.33-1.31,0S520.92,137,521.09,137.31Z"/><polygon class="cls-8" points="524.53 136.46 525.02 137.41 528.59 144.5 524.94 145.33 524.53 136.46"/><polygon class="cls-9" points="524.53 136.46 525.02 137.41 528.59 144.5 524.94 145.33 524.53 136.46"/><polygon class="cls-4" points="513.94 152.7 510.88 151.09 511.07 158.17 513.94 152.7"/><path class="cls-4" d="M507.72,139.55a5,5,0,0,0,7.07-3,8.43,8.43,0,0,1,.59-2.41,3.5,3.5,0,0,1,3.1-1.45c1.19,0,2.38.27,3.58.2a5.06,5.06,0,0,0,4.73-4c.32-2.21-1.72-4.58-3.92-4.23-.64.1-1.23.39-1.86.5-2.91.48-4.87-2.76-7.33-4.38a7.62,7.62,0,0,0-10.62,2.94c-.42.87-.66,1.82-1.16,2.65-1,1.67-2.89,2.58-4.37,3.85s-2.64,3.46-1.62,5.12c.42.68,1.16,1.16,1.43,1.91.45,1.28-.62,2.55-.91,3.88a4.08,4.08,0,0,0,2.88,4.47,6,6,0,0,0,5.43-1.34,11.37,11.37,0,0,0,3.11-4.85"/><path class="cls-8" d="M504.19,138.47a4,4,0,1,1,2.67,5A4,4,0,0,1,504.19,138.47Z"/><path class="cls-4" d="M507.55,138a2.08,2.08,0,0,1,1.76,2.41c-.06.32.44.46.51.13a2.61,2.61,0,0,0-2.14-3.05c-.32,0-.46.46-.13.51Z"/><path class="cls-6" d="M513.56,202.36l-11.37,30.48s-39.58,10-55.15-12.29c0,0-3.76-67.86,44.69-68.23C526.33,152.06,526.06,169.68,513.56,202.36Z"/><path class="cls-4" d="M524.38,414.27l-11.25-.68-.65,17.35,5.12-.13-.28-1.95,6.71,2.23,27.13.28A37.41,37.41,0,0,0,536.67,424a19,19,0,0,1-12.29-9.75Z"/><path class="cls-4" d="M461.2,413.25l-9.23-.7-3,17.76,5.25-.13.86-2,8,2.29,25.49.28a38.2,38.2,0,0,0-14.95-7.55,19.07,19.07,0,0,1-12.41-9.85Z"/><path class="cls-5" d="M502.63,231.51s-31.77,2.11-55.64-11.64c0,0-9.4,22.43-1.44,53.53s18.25,85.77,1.61,142.18c0,0,12.6,6.63,23.87,2.65,0,0,25.14-60.21,23.7-99.27,0,0,20.25,35.44,11.57,97.64,0,0,13,5.07,24.59.73,0,0,8.68-28.93,9.4-60s-6.51-65.82-17.35-88.24S505.29,238.23,502.63,231.51Z"/><path class="cls-4" d="M494.63,319.85c-.57-11.79-15.37-23.86-21.7-31.45a49.19,49.19,0,0,1-11.83-31.64s-4,16.64,9.76,44.84c11.2,23,19.53,53.53,13,78.84C483.88,380.44,496,347.5,494.63,319.85Z"/><path class="cls-7" d="M493.89,243.22a53.43,53.43,0,0,1-25.17-2.53c-.4-.14-.57.5-.18.64a54.24,54.24,0,0,0,25.52,2.53c.42-.06.24-.69-.17-.64Z"/><path class="cls-7" d="M493.19,248.13a39,39,0,0,1-24.6-2.13c-.39-.17-.73.4-.34.57a39.65,39.65,0,0,0,25.12,2.19.33.33,0,0,0-.18-.63Z"/><path class="cls-7" d="M457.84,238.07a22.08,22.08,0,0,1-12.83-4.4c-.34-.26-.67.31-.33.57a22.65,22.65,0,0,0,13.16,4.49.33.33,0,0,0,0-.66Z"/><path class="cls-7" d="M453.53,242.7a17,17,0,0,1-9.53-3.87c-.33-.27-.8.19-.47.46a17.78,17.78,0,0,0,10,4.07c.42,0,.42-.63,0-.66Z"/><path class="cls-7" d="M499.48,232.13A52.05,52.05,0,0,0,502.74,250a120.49,120.49,0,0,0,7.61,15.88c3,5.63,6.11,11.26,8.62,17.17a120.75,120.75,0,0,1,4.94,14.34c6.35,22.62,8.29,46.57,7.18,70A245.46,245.46,0,0,1,523.34,418a.33.33,0,0,0,.64.18,246.17,246.17,0,0,0,7-85.25,209.28,209.28,0,0,0-5.34-31.64c-1-4.15-2.25-8.27-3.67-12.31a130.53,130.53,0,0,0-8.12-18c-3.24-6.1-6.76-12.08-9.42-18.46a53.3,53.3,0,0,1-4.28-20.34.33.33,0,0,0-.66,0Z"/><path class="cls-7" d="M506.72,241.23c.14,3.18-.79,6.9-3.72,8.6a.33.33,0,0,0,.33.57c3.13-1.81,4.2-5.76,4.05-9.17,0-.42-.68-.42-.66,0Z"/><path class="cls-7" d="M509.19,246.2c-.51,3.28-1.57,6.29-4.4,8.26-.35.24,0,.81.33.57,3-2.07,4.16-5.17,4.7-8.66.07-.41-.57-.59-.63-.17Z"/><path class="cls-7" d="M461.76,236a74.22,74.22,0,0,0-1.44,13.13.33.33,0,0,0,.66,0,74.27,74.27,0,0,1,1.41-13c.09-.41-.55-.59-.63-.17Z"/><path class="cls-7" d="M464.2,227.08c-.54,1.58-1,3.17-1.46,4.78a.33.33,0,0,0,.64.17q.64-2.42,1.46-4.78c.14-.4-.5-.57-.64-.17Z"/><path class="cls-8" d="M509.16,156.23a40,40,0,0,1,29.34,22.1c7.93,16,6.21,31.11,23.62,30.63,9-.24,16-16.72,14.52-32.32-.66-7.09,21.62-12.08,17.47,18.08-4.8,34.84-26,39.64-34.35,40.92-10.68,1.63-34.29-6.77-40.76-40.14C511.75,158,509.16,156.23,509.16,156.23Z"/><path class="cls-6" d="M549,203.11c-3.14-5.8-6.2-16.2-10.45-24.78-9.9-20-28-22.77-28-22.77s-17.9-3.46,6.82,42.83c3.83,7.17,5.75,11.64,8.84,17a53.24,53.24,0,0,0,12.28-4.58A49.11,49.11,0,0,0,549,203.11Z"/><path class="cls-8" d="M575.31,192.82c1.78-8.75,1.1-15.6,1.27-19.77-.08-7.13,3.35-5.79,4.07-3.46a2.07,2.07,0,0,1,0,.7h.06c.09-2.1,1-3.22,2.2-3.18.9,0,1.56.61,2,1.89.43-1,1.13-1.73,1.94-1.7s1.6.79,2.09,1.93c.39-.91,1-1.53,1.73-1.47,3.77.29,4.83,18.73,3.16,27.93"/><path class="cls-7" d="M545.9,197.51a56.38,56.38,0,0,1-22.74,11.54.31.31,0,0,0,.16.6,57,57,0,0,0,23-11.7c.31-.26-.14-.7-.44-.44Z"/><path class="cls-9" d="M554.23,234.17c.85-2.67,5.17-4.71,9.62-4.57,3.27.1,5.7,1.35,6.43,3.05a40.17,40.17,0,0,1-10.52,3,20.73,20.73,0,0,1-5.63,0A2.86,2.86,0,0,1,554.23,234.17Z"/><polygon class="cls-4" points="516.34 195.74 511.97 188.71 508.1 216.46 516.34 195.74"/><path class="cls-11" d="M639,144.85a4.21,4.21,0,1,0-3.5,4.8A4.21,4.21,0,0,0,639,144.85Z"/><circle class="cls-12" cx="423.57" cy="142.5" r="18.77" transform="translate(30.76 355.61) rotate(-47.08)"/><path class="cls-4" d="M389.59,100a7.07,7.07,0,1,0,3.53,9.36A7.07,7.07,0,0,0,389.59,100Z"/><path class="cls-3" d="M625.76,213.17c-3-1.35-6.37-.33-7.55,2.29s.27,5.83,3.26,7.19,6.36.32,7.55-2.29S628.74,214.53,625.76,213.17Z"/><path class="cls-13" d="M592.73,122.16a8.72,8.72,0,1,0,7.77,9.58A8.73,8.73,0,0,0,592.73,122.16Z"/><path class="cls-3" d="M424.4,357.79a8.72,8.72,0,1,0,7.77,9.58A8.74,8.74,0,0,0,424.4,357.79Z"/><path class="cls-6" d="M172.77,192.25a17.75,17.75,0,1,0-10.39,22.84A17.74,17.74,0,0,0,172.77,192.25Z"/><path class="cls-4" d="M584.7,366.34a6.56,6.56,0,1,0,9.13-1.66A6.55,6.55,0,0,0,584.7,366.34Z"/><path class="cls-11" d="M125.89,243.47a5.2,5.2,0,1,0-3,6.7A5.19,5.19,0,0,0,125.89,243.47Z"/><path class="cls-11" d="M355.5,66.21H310.34a13.86,13.86,0,0,0-13.86,13.86v.86a13.84,13.84,0,0,0,8.08,12.59l-1.62,9.34,12.41-8.07H355.5a13.86,13.86,0,0,0,13.86-13.86v-.86A13.86,13.86,0,0,0,355.5,66.21Z"/><text class="cls-14" transform="translate(318.35 87.88)">???</text></g><g id="DESIGNED_BY_FREEPIK" data-name="DESIGNED BY FREEPIK"><path class="cls-15" d="M385.1,474a7.3,7.3,0,0,0-1.1,1.45l-.47-.24a.6.6,0,1,0-.52.73.41.41,0,0,0,.19,0l.45.24a6.9,6.9,0,0,0-.54,1.74l.74.13a6.55,6.55,0,0,1,1.8-3.47Z"/><path class="cls-15" d="M390.59,471.72h-.51l-.07-.62a.71.71,0,0,0,.26-.65.7.7,0,0,0-.79-.62.71.71,0,0,0-.63.79.69.69,0,0,0,.41.56l.07.63a7.94,7.94,0,0,0-2.06.64l.33.69a6.81,6.81,0,0,1,3-.67,7.36,7.36,0,0,1,1.48.15l.16-.74A8.23,8.23,0,0,0,390.59,471.72Z"/><path class="cls-15" d="M397.19,474.26a.61.61,0,0,0,.53-.67.6.6,0,0,0-.67-.52.59.59,0,0,0-.53.61l-.42.36a7.82,7.82,0,0,0-1.41-1.14l-.4.64a6.78,6.78,0,0,1,2.56,2.93l.69-.32a7.14,7.14,0,0,0-.94-1.54l.4-.35Z"/><path class="cls-15" d="M390,481.93c-.38,0-.77,0-1.15,0a15.87,15.87,0,0,1-2.48-.18,7.94,7.94,0,0,1-1.27-.29,6.2,6.2,0,0,0,11.34-1.38,9.64,9.64,0,0,1-2.46,1.12A17.19,17.19,0,0,1,390,481.93Z"/><path class="cls-15" d="M390.59,473.23a6,6,0,0,0-6.08,5.95,5.93,5.93,0,0,0,.14,1.26c.67.48,2.7.89,5.35.73a11.48,11.48,0,0,0,6.67-2.16,5.67,5.67,0,0,0-.05-.58A6,6,0,0,0,390.59,473.23Zm-2.16,6.52a1.85,1.85,0,1,1,1.85-1.85A1.85,1.85,0,0,1,388.43,479.75Zm4.74-.91a1.36,1.36,0,1,1,1.36-1.36A1.36,1.36,0,0,1,393.17,478.84Z"/><path class="cls-15" d="M406.6,475.1a2.82,2.82,0,0,0-1.39-.24c-.55.07-.84.34-.84,1v.87h2.23v1.71h-2.23v5.46h-1.93v-5.46H401.1v-1.71h1.34v-.89c0-1.68.89-2.79,2.57-2.79a4.09,4.09,0,0,1,1.59.31Z"/><path class="cls-15" d="M411.3,478.43a3.23,3.23,0,0,0-.53,0,1.43,1.43,0,0,0-1.51,1.61v3.91h-1.93v-7.17h1.87v.78a2.27,2.27,0,0,1,2-1,1.8,1.8,0,0,1,1.1.34Z"/><path class="cls-15" d="M419,480.31a6,6,0,0,1,0,.65h-5.09a1.74,1.74,0,0,0,1.85,1.49,2.88,2.88,0,0,0,1.81-.69l1.13,1.24a4.33,4.33,0,0,1-3.05,1.09,3.78,3.78,0,0,1-.1-7.55A3.48,3.48,0,0,1,419,480.31Zm-5.12-.67H417a1.6,1.6,0,0,0-3.18,0Z"/><path class="cls-15" d="M426.62,480.31a6,6,0,0,1,0,.65H421.5a1.72,1.72,0,0,0,1.84,1.49,2.88,2.88,0,0,0,1.81-.69l1.14,1.24a4.37,4.37,0,0,1-3.06,1.09,3.78,3.78,0,0,1-.1-7.55A3.47,3.47,0,0,1,426.62,480.31Zm-5.12-.67h3.18a1.55,1.55,0,0,0-1.56-1.43A1.57,1.57,0,0,0,421.5,479.64Z"/><path class="cls-15" d="M435,480.32a3.55,3.55,0,0,1-3.47,3.77,2.62,2.62,0,0,1-2.11-.93v3.71h-1.92V476.74h1.89v.79a2.58,2.58,0,0,1,2.14-1A3.55,3.55,0,0,1,435,480.32Zm-5.67,0a1.85,1.85,0,1,0,1.84-2A1.83,1.83,0,0,0,429.29,480.32Z"/><path class="cls-15" d="M438.07,474.39a1.24,1.24,0,1,1-1.24-1.24A1.21,1.21,0,0,1,438.07,474.39Zm-.26,9.52h-1.93v-7.17h1.93Z"/><path class="cls-15" d="M441,479.29l2.7-2.55h2.37l-3.48,3.37,3.5,3.8h-2.37L441,481v2.9H439.1V473.25H441Z"/><path class="cls-15" d="M309.41,483.84v-1A3,3,0,0,1,307,484c-1.84,0-3.14-1.41-3.14-3.71s1.28-3.72,3.14-3.72a2.94,2.94,0,0,1,2.39,1.25v-3.77h1.1v9.77Zm0-1.92v-3.2a2.63,2.63,0,0,0-2.12-1.15c-1.42,0-2.27,1.18-2.27,2.74s.85,2.73,2.27,2.73A2.61,2.61,0,0,0,309.41,481.92Z"/><path class="cls-15" d="M311.93,480.3a3.55,3.55,0,0,1,3.49-3.71c2.14,0,3.4,1.67,3.4,3.8v.27h-5.73a2.49,2.49,0,0,0,2.55,2.45,3.1,3.1,0,0,0,2.18-.89l.53.71a3.84,3.84,0,0,1-2.81,1.09A3.51,3.51,0,0,1,311.93,480.3Zm3.47-2.8a2.35,2.35,0,0,0-2.31,2.36h4.64A2.29,2.29,0,0,0,315.4,477.5Z"/><path class="cls-15" d="M319.61,482.91l.57-.8a3.18,3.18,0,0,0,2.33,1c1.08,0,1.67-.52,1.67-1.22,0-1.71-4.38-.66-4.38-3.28,0-1.1.95-2,2.63-2a3.61,3.61,0,0,1,2.63,1l-.52.76a2.75,2.75,0,0,0-2.11-.89c-1,0-1.56.48-1.56,1.11,0,1.55,4.38.53,4.38,3.28,0,1.19-1,2.14-2.79,2.14A3.75,3.75,0,0,1,319.61,482.91Z"/><path class="cls-15" d="M326.48,475a.74.74,0,0,1,.73-.74.74.74,0,1,1,0,1.48A.73.73,0,0,1,326.48,475Zm.19,8.82v-7.07h1.1v7.07Z"/><path class="cls-15" d="M329.58,485.66l.56-.82a2.71,2.71,0,0,0,2.3,1,2,2,0,0,0,2.27-2.13v-1a3,3,0,0,1-2.37,1.26c-1.85,0-3.15-1.38-3.15-3.66s1.29-3.68,3.15-3.68a2.92,2.92,0,0,1,2.37,1.25v-1.07h1.1v6.87c0,2.34-1.64,3.07-3.37,3.07A3.63,3.63,0,0,1,329.58,485.66Zm5.13-3.85v-3.09a2.6,2.6,0,0,0-2.11-1.15c-1.42,0-2.27,1.13-2.27,2.7s.85,2.69,2.27,2.69A2.62,2.62,0,0,0,334.71,481.81Z"/><path class="cls-15" d="M342.41,483.84v-4.63c0-1.24-.63-1.64-1.58-1.64a2.73,2.73,0,0,0-2.09,1.1v5.17h-1.1v-7.07h1.1v1a3.51,3.51,0,0,1,2.52-1.2,2,2,0,0,1,2.25,2.29v5Z"/><path class="cls-15" d="M344.93,480.3a3.55,3.55,0,0,1,3.49-3.71c2.14,0,3.4,1.67,3.4,3.8v.27h-5.73a2.5,2.5,0,0,0,2.55,2.45,3.1,3.1,0,0,0,2.18-.89l.53.71a3.82,3.82,0,0,1-2.81,1.09A3.51,3.51,0,0,1,344.93,480.3Zm3.47-2.8a2.36,2.36,0,0,0-2.31,2.36h4.64A2.28,2.28,0,0,0,348.4,477.5Z"/><path class="cls-15" d="M358.35,483.84v-1A3,3,0,0,1,356,484c-1.84,0-3.15-1.41-3.15-3.71s1.29-3.72,3.15-3.72a3,3,0,0,1,2.39,1.25v-3.77h1.1v9.77Zm0-1.92v-3.2a2.66,2.66,0,0,0-2.12-1.15c-1.42,0-2.27,1.18-2.27,2.74s.85,2.73,2.27,2.73A2.64,2.64,0,0,0,358.35,481.92Z"/><path class="cls-15" d="M364.69,483.84v-9.77h1.1v3.77a2.93,2.93,0,0,1,2.39-1.25c1.84,0,3.15,1.47,3.15,3.72S370,484,368.18,484a3,3,0,0,1-2.39-1.23v1Zm3.21-.8c1.44,0,2.29-1.16,2.29-2.73s-.85-2.74-2.29-2.74a2.63,2.63,0,0,0-2.11,1.15v3.2A2.6,2.6,0,0,0,367.9,483Z"/><path class="cls-15" d="M372.53,485.62a1.73,1.73,0,0,0,.6.11,1,1,0,0,0,1.05-.74l.47-1.07-3-7.15h1.19l2.36,5.8,2.34-5.8h1.2l-3.54,8.51a2.1,2.1,0,0,1-2.08,1.43,3.52,3.52,0,0,1-.81-.1Z"/></g></g></svg>